<svg id="Layer_1" data-name="Layer 1" xmlns="http://www.w3.org/2000/svg" xmlns:xlink="http://www.w3.org/1999/xlink" viewBox="0 0 3888.33 288.19">
  <defs>
    <style>
      .cls-1 {
        fill: url(#linear-gradient);
      }

      .cls-1, .cls-2 {
        stroke-width: 0px;
      }

      .cls-3 {
        fill: none;
        stroke: #1a1a1a;
        stroke-width: 12px;
      }

      .cls-2 {
        fill: #1a1a1a;
      }
    </style>
    <linearGradient id="linear-gradient" x1="1930.31" y1="449.96" x2="1983.85" y2="-162.04" gradientUnits="userSpaceOnUse">
      <stop offset="0" stop-color="#6decbe"/>
      <stop offset=".13" stop-color="#70e6c6"/>
      <stop offset=".34" stop-color="#7bd5df"/>
      <stop offset=".5" stop-color="#86c6f7"/>
      <stop offset=".68" stop-color="#a2aef4"/>
      <stop offset=".88" stop-color="#bb9af1"/>
      <stop offset="1" stop-color="#c493f1"/>
    </linearGradient>
  </defs>
  <g>
    <g>
      <path class="cls-2" d="M336.67,211.94l-68.33,71.67H0L49.58,4.86h322.5l-68.75,72.5H122.92l-5.83,33.33h220.42l-60,63.33H105.83l-6.67,37.92h237.5Z"/>
      <path class="cls-2" d="M380.42,104.44h20c28.75-60.42,99.58-99.58,180.42-99.58h156.25l-69.17,72.5h-100c-28.33,0-53.33,10.42-71.25,27.08h145l-25.83,27.92h-137.92c-2.08,6.67-4.58,15.42-4.58,20.83h122.08l-26.25,27.5h-90c10.42,19.58,34.17,31.25,65,31.25h140.42l-67.92,71.67h-85c-80.42,0-135.42-42.08-143.75-102.92h-40l23.75-27.5h15.42c.83-6.25,1.67-14.58,3.75-20.83h-34.17l23.75-27.92Z"/>
      <path class="cls-2" d="M750.83,104.44h20c28.75-60.42,99.58-99.58,180.42-99.58h156.25l-69.17,72.5h-100c-28.33,0-53.33,10.42-71.25,27.08h145l-25.83,27.92h-137.92c-2.08,6.67-4.58,15.42-4.58,20.83h122.08l-26.25,27.5h-90c10.42,19.58,34.17,31.25,65,31.25h140.42l-67.92,71.67h-85c-80.42,0-135.42-42.08-143.75-102.92h-40l23.75-27.5h15.42c.83-6.25,1.67-14.58,3.75-20.83h-34.17l23.75-27.92Z"/>
      <path class="cls-2" d="M1520.42,118.19c0,114.58-75.83,170-232.09,170-120.42,0-181.25-37.5-181.25-118.33C1107.08,55.27,1182.92.27,1339.17.27c120.42,0,181.25,37.08,181.25,117.92ZM1433.75,126.94c0-45-31.67-54.17-107.5-54.17-112.08,0-132.5,17.08-132.5,88.75,0,45,32.08,54.17,107.08,54.17,112.08,0,132.92-17.5,132.92-88.75Z"/>
      <path class="cls-2" d="M1920,161.94c-15,84.17-79.58,126.25-195.84,126.25s-172.5-33.33-172.5-100c0-8.33.83-17.08,2.5-26.25l27.92-157.09h86.25l-28.33,157.09c-.83,5.83-1.25,10.83-1.25,15.42,0,29.17,21.67,39.17,97.92,39.17,66.67,0,89.58-15.42,96.67-54.58l27.92-157.09h86.67l-27.92,157.09Z"/>
      <path class="cls-2" d="M2197.09,273.19l-143.75-153.33-28.75,163.75h-78.33l40.42-231.25c6.25-37.08,30.83-52.08,56.67-52.08,10.42,0,20.83,2.5,32.08,15l143.75,153.33,29.17-163.75h78.33l-41.25,230.84c-6.67,37.08-31.25,52.5-56.25,52.5-11.67,0-20.42-2.5-32.08-15Z"/>
      <path class="cls-2" d="M2724.17,4.86l-69.17,72.5h-99.17l-36.67,206.25h-86.25l36.25-206.25h-130.83l69.17-72.5h316.67Z"/>
      <path class="cls-2" d="M2730.83,283.61l65-71.67h69.58c17.08,0,36.25,0,49.58.83-5.83-10-14.58-27.08-21.25-40.42l-37.08-73.75-163.33,185h-102.08l223.34-252.09c14.58-16.25,34.17-31.25,61.25-31.25s40.42,13.75,49.58,31.25l129.58,252.09h-324.17Z"/>
      <path class="cls-2" d="M3335.42,273.19l-143.75-153.33-28.75,163.75h-78.33l40.42-231.25c6.25-37.08,30.83-52.08,56.67-52.08,10.42,0,20.83,2.5,32.08,15l143.75,153.33,29.17-163.75h78.33l-41.25,230.84c-6.67,37.08-31.25,52.5-56.25,52.5-11.67,0-20.42-2.5-32.08-15Z"/>
      <path class="cls-2" d="M3862.5,4.86l-69.17,72.5h-99.17l-36.67,206.25h-86.25l36.25-206.25h-130.83l69.17-72.5h316.67Z"/>
    </g>
    <g>
      <path class="cls-3" d="M336.67,211.94l-68.33,71.67H0L49.58,4.86h322.5l-68.75,72.5H122.92l-5.83,33.33h220.42l-60,63.33H105.83l-6.67,37.92h237.5Z"/>
      <path class="cls-3" d="M380.42,104.44h20c28.75-60.42,99.58-99.58,180.42-99.58h156.25l-69.17,72.5h-100c-28.33,0-53.33,10.42-71.25,27.08h145l-25.83,27.92h-137.92c-2.08,6.67-4.58,15.42-4.58,20.83h122.08l-26.25,27.5h-90c10.42,19.58,34.17,31.25,65,31.25h140.42l-67.92,71.67h-85c-80.42,0-135.42-42.08-143.75-102.92h-40l23.75-27.5h15.42c.83-6.25,1.67-14.58,3.75-20.83h-34.17l23.75-27.92Z"/>
      <path class="cls-3" d="M750.83,104.44h20c28.75-60.42,99.58-99.58,180.42-99.58h156.25l-69.17,72.5h-100c-28.33,0-53.33,10.42-71.25,27.08h145l-25.83,27.92h-137.92c-2.08,6.67-4.58,15.42-4.58,20.83h122.08l-26.25,27.5h-90c10.42,19.58,34.17,31.25,65,31.25h140.42l-67.92,71.67h-85c-80.42,0-135.42-42.08-143.75-102.92h-40l23.75-27.5h15.42c.83-6.25,1.67-14.58,3.75-20.83h-34.17l23.75-27.92Z"/>
      <path class="cls-3" d="M1520.42,118.19c0,114.58-75.83,170-232.09,170-120.42,0-181.25-37.5-181.25-118.33C1107.08,55.27,1182.92.27,1339.17.27c120.42,0,181.25,37.08,181.25,117.92ZM1433.75,126.94c0-45-31.67-54.17-107.5-54.17-112.08,0-132.5,17.08-132.5,88.75,0,45,32.08,54.17,107.08,54.17,112.08,0,132.92-17.5,132.92-88.75Z"/>
      <path class="cls-3" d="M1920,161.94c-15,84.17-79.58,126.25-195.84,126.25s-172.5-33.33-172.5-100c0-8.33.83-17.08,2.5-26.25l27.92-157.09h86.25l-28.33,157.09c-.83,5.83-1.25,10.83-1.25,15.42,0,29.17,21.67,39.17,97.92,39.17,66.67,0,89.58-15.42,96.67-54.58l27.92-157.09h86.67l-27.92,157.09Z"/>
      <path class="cls-3" d="M2197.09,273.19l-143.75-153.33-28.75,163.75h-78.33l40.42-231.25c6.25-37.08,30.83-52.08,56.67-52.08,10.42,0,20.83,2.5,32.08,15l143.75,153.33,29.17-163.75h78.33l-41.25,230.84c-6.67,37.08-31.25,52.5-56.25,52.5-11.67,0-20.42-2.5-32.08-15Z"/>
      <path class="cls-3" d="M2724.17,4.86l-69.17,72.5h-99.17l-36.67,206.25h-86.25l36.25-206.25h-130.83l69.17-72.5h316.67Z"/>
      <path class="cls-3" d="M2730.83,283.61l65-71.67h69.58c17.08,0,36.25,0,49.58.83-5.83-10-14.58-27.08-21.25-40.42l-37.08-73.75-163.33,185h-102.08l223.34-252.09c14.58-16.25,34.17-31.25,61.25-31.25s40.42,13.75,49.58,31.25l129.58,252.09h-324.17Z"/>
      <path class="cls-3" d="M3335.42,273.19l-143.75-153.33-28.75,163.75h-78.33l40.42-231.25c6.25-37.08,30.83-52.08,56.67-52.08,10.42,0,20.83,2.5,32.08,15l143.75,153.33,29.17-163.75h78.33l-41.25,230.84c-6.67,37.08-31.25,52.5-56.25,52.5-11.67,0-20.42-2.5-32.08-15Z"/>
      <path class="cls-3" d="M3862.5,4.86l-69.17,72.5h-99.17l-36.67,206.25h-86.25l36.25-206.25h-130.83l69.17-72.5h316.67Z"/>
    </g>
  </g>
  <g>
    <g>
      <path class="cls-1" d="M362.49,211.67l-68.33,71.67H25.82L75.41,4.58h322.5l-68.75,72.5h-180.42l-5.83,33.33h220.42l-60,63.33h-171.67l-6.67,37.92h237.5Z"/>
      <path class="cls-1" d="M406.24,104.17h20c28.75-60.42,99.58-99.58,180.42-99.58h156.25l-69.17,72.5h-100c-28.33,0-53.33,10.42-71.25,27.08h145l-25.83,27.92h-137.92c-2.08,6.67-4.58,15.42-4.58,20.83h122.08l-26.25,27.5h-90c10.42,19.58,34.17,31.25,65,31.25h140.42l-67.92,71.67h-85c-80.42,0-135.42-42.08-143.75-102.92h-40l23.75-27.5h15.42c.83-6.25,1.67-14.58,3.75-20.83h-34.17l23.75-27.92Z"/>
      <path class="cls-1" d="M776.66,104.17h20c28.75-60.42,99.58-99.58,180.42-99.58h156.25l-69.17,72.5h-100c-28.33,0-53.33,10.42-71.25,27.08h145l-25.83,27.92h-137.92c-2.08,6.67-4.58,15.42-4.58,20.83h122.08l-26.25,27.5h-90c10.42,19.58,34.17,31.25,65,31.25h140.42l-67.92,71.67h-85c-80.42,0-135.42-42.08-143.75-102.92h-40l23.75-27.5h15.42c.83-6.25,1.67-14.58,3.75-20.83h-34.17l23.75-27.92Z"/>
      <path class="cls-1" d="M1546.25,117.92c0,114.58-75.83,170-232.09,170-120.42,0-181.25-37.5-181.25-118.33,0-114.58,75.83-169.59,232.09-169.59,120.42,0,181.25,37.08,181.25,117.92ZM1459.58,126.67c0-45-31.67-54.17-107.5-54.17-112.08,0-132.5,17.08-132.5,88.75,0,45,32.08,54.17,107.08,54.17,112.08,0,132.92-17.5,132.92-88.75Z"/>
      <path class="cls-1" d="M1945.83,161.67c-15,84.17-79.58,126.25-195.84,126.25s-172.5-33.33-172.5-100c0-8.33.83-17.08,2.5-26.25l27.92-157.09h86.25l-28.33,157.09c-.83,5.83-1.25,10.83-1.25,15.42,0,29.17,21.67,39.17,97.92,39.17,66.67,0,89.58-15.42,96.67-54.58l27.92-157.09h86.67l-27.92,157.09Z"/>
      <path class="cls-1" d="M2222.91,272.92l-143.75-153.33-28.75,163.75h-78.33l40.42-231.25c6.25-37.08,30.83-52.08,56.67-52.08,10.42,0,20.83,2.5,32.08,15l143.75,153.34,29.17-163.75h78.33l-41.25,230.84c-6.67,37.08-31.25,52.5-56.25,52.5-11.67,0-20.42-2.5-32.08-15Z"/>
      <path class="cls-1" d="M2750,4.58l-69.17,72.5h-99.17l-36.67,206.25h-86.25l36.25-206.25h-130.83l69.17-72.5h316.67Z"/>
      <path class="cls-1" d="M2756.66,283.34l65-71.67h69.58c17.08,0,36.25,0,49.58.83-5.83-10-14.58-27.08-21.25-40.42l-37.08-73.75-163.33,185h-102.08l223.34-252.09c14.58-16.25,34.17-31.25,61.25-31.25s40.42,13.75,49.58,31.25l129.58,252.09h-324.17Z"/>
      <path class="cls-1" d="M3361.24,272.92l-143.75-153.33-28.75,163.75h-78.33l40.42-231.25c6.25-37.08,30.83-52.08,56.67-52.08,10.42,0,20.83,2.5,32.08,15l143.75,153.34,29.17-163.75h78.33l-41.25,230.84c-6.67,37.08-31.25,52.5-56.25,52.5-11.67,0-20.42-2.5-32.08-15Z"/>
      <path class="cls-1" d="M3888.33,4.58l-69.17,72.5h-99.17l-36.67,206.25h-86.25l36.25-206.25h-130.83l69.17-72.5h316.67Z"/>
    </g>
    <g>
      <path class="cls-3" d="M362.49,211.67l-68.33,71.67H25.82L75.41,4.58h322.5l-68.75,72.5h-180.42l-5.83,33.33h220.42l-60,63.33h-171.67l-6.67,37.92h237.5Z"/>
      <path class="cls-3" d="M406.24,104.17h20c28.75-60.42,99.58-99.58,180.42-99.58h156.25l-69.17,72.5h-100c-28.33,0-53.33,10.42-71.25,27.08h145l-25.83,27.92h-137.92c-2.08,6.67-4.58,15.42-4.58,20.83h122.08l-26.25,27.5h-90c10.42,19.58,34.17,31.25,65,31.25h140.42l-67.92,71.67h-85c-80.42,0-135.42-42.08-143.75-102.92h-40l23.75-27.5h15.42c.83-6.25,1.67-14.58,3.75-20.83h-34.17l23.75-27.92Z"/>
      <path class="cls-3" d="M776.66,104.17h20c28.75-60.42,99.58-99.58,180.42-99.58h156.25l-69.17,72.5h-100c-28.33,0-53.33,10.42-71.25,27.08h145l-25.83,27.92h-137.92c-2.08,6.67-4.58,15.42-4.58,20.83h122.08l-26.25,27.5h-90c10.42,19.58,34.17,31.25,65,31.25h140.42l-67.92,71.67h-85c-80.42,0-135.42-42.08-143.75-102.92h-40l23.75-27.5h15.42c.83-6.25,1.67-14.58,3.75-20.83h-34.17l23.75-27.92Z"/>
      <path class="cls-3" d="M1546.25,117.92c0,114.58-75.83,170-232.09,170-120.42,0-181.25-37.5-181.25-118.33,0-114.58,75.83-169.59,232.09-169.59,120.42,0,181.25,37.08,181.25,117.92ZM1459.58,126.67c0-45-31.67-54.17-107.5-54.17-112.08,0-132.5,17.08-132.5,88.75,0,45,32.08,54.17,107.08,54.17,112.08,0,132.92-17.5,132.92-88.75Z"/>
      <path class="cls-3" d="M1945.83,161.67c-15,84.17-79.58,126.25-195.84,126.25s-172.5-33.33-172.5-100c0-8.33.83-17.08,2.5-26.25l27.92-157.09h86.25l-28.33,157.09c-.83,5.83-1.25,10.83-1.25,15.42,0,29.17,21.67,39.17,97.92,39.17,66.67,0,89.58-15.42,96.67-54.58l27.92-157.09h86.67l-27.92,157.09Z"/>
      <path class="cls-3" d="M2222.91,272.92l-143.75-153.33-28.75,163.75h-78.33l40.42-231.25c6.25-37.08,30.83-52.08,56.67-52.08,10.42,0,20.83,2.5,32.08,15l143.75,153.34,29.17-163.75h78.33l-41.25,230.84c-6.67,37.08-31.25,52.5-56.25,52.5-11.67,0-20.42-2.5-32.08-15Z"/>
      <path class="cls-3" d="M2750,4.58l-69.17,72.5h-99.17l-36.67,206.25h-86.25l36.25-206.25h-130.83l69.17-72.5h316.67Z"/>
      <path class="cls-3" d="M2756.66,283.34l65-71.67h69.58c17.08,0,36.25,0,49.58.83-5.83-10-14.58-27.08-21.25-40.42l-37.08-73.75-163.33,185h-102.08l223.34-252.09c14.58-16.25,34.17-31.25,61.25-31.25s40.42,13.75,49.58,31.25l129.58,252.09h-324.17Z"/>
      <path class="cls-3" d="M3361.24,272.92l-143.75-153.33-28.75,163.75h-78.33l40.42-231.25c6.25-37.08,30.83-52.08,56.67-52.08,10.42,0,20.83,2.5,32.08,15l143.75,153.34,29.17-163.75h78.33l-41.25,230.84c-6.67,37.08-31.25,52.5-56.25,52.5-11.67,0-20.42-2.5-32.08-15Z"/>
      <path class="cls-3" d="M3888.33,4.58l-69.17,72.5h-99.17l-36.67,206.25h-86.25l36.25-206.25h-130.83l69.17-72.5h316.67Z"/>
    </g>
  </g>
</svg>